PathFileType	4	(X/Y/Z)	C:\Users\WrightLab\Desktop\Jo\P1.2Trial4.trc
DataRate	CameraRate	NumFrames	NumMarkers	Units	OrigDataRate	OrigDataStartFrame	OrigNumFrames
100.00	100.00	       39	19	mm	100.00	1	       525
Frame#	Time	Headset_Front			Headset_Back			Headset_Left			Headset_Right			Left_Shoulder			Right_Shoulder			Sternum			C7			Left Elbow			Right Elbow			Left Wrist			Right Wrist			Left ASIS			Right ASIS			S2			Left Knee			Right Knee			Left Ankle			Right Ankle			
		X1	Y1	Z1	X2	Y2	Z2	X3	Y3	Z3	X4	Y4	Z4	X5	Y5	Z5	X6	Y6	Z6	X7	Y7	Z7	X8	Y8	Z8	X9	Y9	Z9	X10	Y10	Z10	X11	Y11	Z11	X12	Y12	Z12	X13	Y13	Z13	X14	Y14	Z14	X15	Y15	Z15	X16	Y16	Z16	X17	Y17	Z17	X18	Y18	Z18	X19	Y19	Z19	

1	0.000										-355.09143	1133.40833	-1482.59668	-133.05573	1206.64307	-1565.83264																-60.37572	713.18799	-1461.43799				-215.60020	829.64258	-1472.25391										-466.39447	369.95853	-1582.17517	-109.44704	100.61322	-1555.43481				
2	0.010										-355.05502	1133.33521	-1482.38342	-134.22754	1207.72620	-1565.94421																-60.00987	712.91125	-1460.22058				-216.09682	829.64594	-1470.13672										-466.40482	369.92239	-1582.22180	-114.72185	97.91210	-1547.37036				
3	0.020										-355.65967	1131.96594	-1479.41992	-134.61031	1207.57642	-1563.37012																-59.19939	713.19891	-1460.02466				-216.10747	829.39270	-1470.16370										-467.11014	370.65948	-1579.30469	-120.58294	95.22691	-1538.85327				
4	0.030										-355.68002	1131.76550	-1479.49976	-134.77942	1207.93616	-1561.77454																-58.23170	713.13660	-1459.08020				-216.62279	829.22742	-1468.14014										-467.95886	371.25040	-1576.19751	-126.19193	93.14449	-1529.48975				
5	0.040										-355.77847	1130.80054	-1478.95520	-135.08659	1208.26465	-1560.32703																-57.40173	713.15295	-1457.65833				-216.65660	828.77832	-1468.27856										-468.51569	371.30988	-1574.53296	-131.66397	90.03078	-1519.73242				
6	0.050										-355.79996	1130.54578	-1479.03259	-135.32401	1208.63684	-1558.68262																-56.14616	712.87103	-1456.55066				-217.01996	827.96918	-1467.66333										-468.57178	371.15771	-1574.79565	-136.65919	86.59892	-1509.44629				
7	0.060										-356.62820	1130.57092	-1476.57202	-135.75241	1208.50745	-1556.02856																-55.25229	713.00476	-1454.59424				-217.90215	826.55145	-1464.63904										-468.64133	370.96896	-1575.12122	-140.77538	84.36007	-1499.54187				
8	0.070										-358.12943	1129.83630	-1470.91467	-136.04196	1208.87573	-1554.40808																-54.38148	712.80597	-1453.02783				-218.01825	826.00525	-1465.27271										-468.74005	370.66718	-1575.57507	-146.04547	81.83382	-1487.88745				
9	0.080										-358.09650	1128.73682	-1471.51379	-136.93365	1207.83923	-1549.30981																-53.64487	712.97815	-1451.61365				-217.91946	824.69659	-1466.37646										-468.92792	370.19971	-1576.46484	-151.68854	79.60784	-1475.30444				
10	0.090										-359.58304	1129.32117	-1465.40076	-137.81339	1206.80225	-1544.22009																-50.89187	713.28143	-1452.97412				-219.00162	825.12238	-1462.35022										-469.07382	369.80707	-1577.14819	-156.85100	76.72281	-1463.54846				
11	0.100										-360.15408	1128.33484	-1462.95752	-138.17921	1207.26697	-1542.18494																-49.90749	713.18408	-1451.43408				-219.06186	824.96124	-1462.69824										-470.25476	370.14343	-1573.82434	-161.78696	74.80967	-1451.12842				
12	0.110										-360.11258	1128.21692	-1462.71008	-138.77045	1207.22900	-1539.14819																-48.16444	712.97180	-1450.14990				-220.17094	825.37402	-1458.84839										-470.80231	369.45383	-1573.46790	-167.16597	72.46801	-1436.15381				
13	0.120										-360.24670	1127.20996	-1462.35889	-139.14641	1207.72803	-1536.96826																-47.04554	713.38007	-1447.91382				-220.69812	826.05408	-1457.15051							-246.40077	437.50101	-1345.45911	-471.70816	369.98166	-1571.98413	-172.48404	70.71278	-1424.32227				
14	0.130										-361.75818	1126.99585	-1456.34204	-139.73586	1207.76599	-1533.60449																-44.20324	713.93695	-1448.99695				-221.17273	826.22089	-1455.03101							-248.16672	435.85028	-1350.75720	-472.17706	368.44211	-1573.23389	-178.74675	68.83504	-1409.61865				
15	0.140										-362.26602	1126.30652	-1455.42395	-140.58330	1208.48767	-1531.51563																-42.97071	714.15320	-1446.86621				-221.61732	824.54797	-1453.71240							-252.09663	437.25919	-1347.52832	-472.47455	367.76785	-1574.65503	-184.66937	68.02804	-1395.85229				
16	0.150										-363.81396	1125.38281	-1450.05957	-142.15889	1209.30310	-1529.26001																-41.15956	714.52783	-1445.52283				-222.82634	825.23572	-1450.09399							-253.85423	437.81857	-1346.58704	-474.09103	368.96445	-1570.13147	-189.73267	68.11340	-1382.17529				
17	0.160										-364.56396	1125.68896	-1447.26379	-142.54382	1208.27405	-1523.36523																-38.77901	715.30774	-1444.60425				-223.82024	824.15723	-1447.23608							-256.42093	438.43802	-1341.30566	-475.12744	367.56158	-1568.63757	-195.60161	68.97789	-1368.29297				
18	0.170										-364.61444	1125.35840	-1447.47998	-142.27556	1207.14990	-1517.11902																-36.40511	714.87512	-1443.54565				-225.06294	824.62183	-1443.71179							-258.38779	440.48764	-1337.62024	-475.53366	366.67743	-1570.58215	-201.35959	69.89149	-1355.36365				
19	0.180										-366.21796	1124.57031	-1441.02002	-142.84581	1207.24438	-1513.52808																-34.66410	715.30298	-1441.73303				-225.58702	823.94952	-1442.34241							-261.19998	439.49039	-1337.74133	-477.52487	367.49396	-1566.15149	-207.96007	72.25080	-1342.32227				
20	0.190										-366.65695	1125.15747	-1439.00183	-143.42000	1207.30542	-1510.08826																-32.25896	716.39459	-1441.42163				-226.10248	823.79114	-1440.44238							-263.01154	440.74887	-1335.87305	-478.00742	366.41461	-1568.44800	-213.45958	74.37554	-1330.90271				
21	0.200										-368.02655	1124.21204	-1433.67090	-144.27434	1208.05896	-1507.86279																-30.08644	716.30450	-1439.30786				-226.74483	824.30737	-1437.74353							-264.49149	441.84665	-1331.56750	-479.39978	366.34625	-1565.29626	-217.73271	79.49133	-1322.21619				
22	0.210										-368.77258	1124.64392	-1430.90649	-145.79558	1207.93140	-1503.78320																-27.97269	716.06287	-1437.59998				-227.51576	823.39203	-1434.18115							-266.56104	441.16794	-1332.24536	-480.23953	366.11862	-1562.02930	-222.35947	83.07671	-1312.54614				
23	0.220										-369.06104	1122.93420	-1431.27380	-145.67197	1206.11365	-1496.20386																-25.59067	717.11139	-1436.73865				-228.62344	824.01892	-1429.47021							-267.64166	441.52109	-1331.08838	-480.81763	366.67279	-1560.76685	-227.98749	87.64947	-1303.17041				
24	0.230										-370.56088	1122.20154	-1425.21826	-146.30176	1206.15784	-1492.86255																-23.29205	717.22455	-1433.75415				-229.47928	824.29352	-1426.44800							-269.33356	442.51160	-1326.99939	-481.13394	365.22375	-1558.89111	-232.68892	92.36306	-1294.37646				
25	0.240										-371.20160	1121.32434	-1422.71130	-146.73645	1206.64380	-1490.79163																-20.94966	716.99799	-1431.38745				-229.91072	824.10315	-1424.60974							-270.44949	443.67111	-1318.62244	-480.97528	364.14963	-1558.81091	-237.52698	95.81421	-1283.45056				
26	0.250										-373.07297	1122.31116	-1414.97815	-147.32771	1206.67126	-1487.52759																-19.67411	716.82648	-1428.58630				-230.67526	823.26056	-1421.97266							-271.52557	443.21103	-1319.34778	-481.73331	364.85828	-1553.38940	-241.68594	100.66068	-1274.63672				
27	0.260										-373.17773	1121.34851	-1414.48254	-147.62262	1203.94214	-1478.33044																-18.51219	716.68134	-1424.25293				-231.99391	822.34387	-1417.28101							-272.47293	442.56241	-1316.96436	-481.83011	364.66443	-1550.77734	-245.38112	104.40228	-1266.35876				
28	0.270										-373.78183	1119.72021	-1411.57739	-148.34282	1204.01038	-1475.42712																-15.21276	716.87665	-1424.50415				-232.95262	821.10974	-1414.24561							-273.10559	443.30786	-1308.10767	-481.72498	363.78696	-1549.86365	-249.64594	107.29487	-1255.79639				
29	0.280										-374.87411	1118.59143	-1408.69348	-149.61037	1204.10022	-1472.65820																-13.26856	716.63092	-1422.36841				-234.48651	822.18506	-1408.26489							-274.91150	442.70169	-1306.31665	-480.95862	363.67078	-1544.34644	-253.11322	108.68333	-1249.23303				
30	0.290										-376.15643	1118.14001	-1403.17078	-150.03679	1202.98547	-1467.29333																-12.12670	716.66901	-1419.14490				-234.91273	821.58319	-1406.61694							-276.92520	445.01746	-1300.93225	-479.95316	361.41278	-1543.79553	-256.27332	110.62492	-1240.46033				
31	0.300										-376.82367	1116.82422	-1400.26880	-150.09138	1201.23950	-1460.78650																-10.87547	715.83783	-1414.62585				-235.70671	820.31897	-1402.56592							-278.67868	443.70782	-1300.23645	-480.30484	362.14401	-1537.77197	-257.85184	112.65208	-1233.98291				
32	0.310				-502.55826	1353.71655	-1373.87048				-377.67517	1115.72131	-1395.64209	-150.77245	1201.16431	-1458.01721																-9.82756	715.62671	-1411.07031				-236.09564	819.79333	-1400.44287							-279.93558	443.54022	-1294.96362	-479.91660	361.08649	-1533.89075	-259.57852	115.36395	-1227.48596				
33	0.320				-502.78561	1353.39807	-1369.97949				-378.36661	1116.13635	-1392.64490	-151.10497	1199.18701	-1450.92834																-9.33241	714.06091	-1405.93762				-238.15428	819.38153	-1393.23633							-281.14108	444.51129	-1287.24231	-478.43643	358.23691	-1535.25574	-261.69193	115.43747	-1221.68909				
34	0.330				-502.57422	1352.63831	-1365.54138				-379.71375	1114.32544	-1387.18140	-151.90230	1198.36938	-1446.68311																-8.63846	714.08459	-1402.98584				-239.33713	817.30994	-1389.41553							-281.73679	444.10165	-1285.20972	-478.83224	358.16837	-1532.74414	-263.31863	116.34869	-1216.17603				
35	0.340				-503.26218	1351.83691	-1359.77917				-381.11966	1112.58069	-1382.05872	-153.12874	1198.42957	-1444.04968																-7.60806	713.04388	-1399.07141				-239.85571	817.17944	-1387.52148							-283.25943	444.16348	-1278.13562	-479.23810	357.82318	-1526.61292	-264.91257	116.90984	-1209.69141				
36	0.350				-503.65475	1351.67578	-1356.07983				-381.76291	1113.04077	-1378.83313	-153.23634	1196.51355	-1437.24500																-6.65202	711.94489	-1394.90186				-240.20290	817.24524	-1384.62830							-285.14816	442.97098	-1276.59863	-478.94928	357.38074	-1523.55066	-266.99084	116.61401	-1205.26501				
37	0.360				-504.47522	1351.42871	-1351.45642				-382.36316	1110.90930	-1374.99414	-153.73944	1195.53589	-1432.52844																-7.04675	711.13446	-1390.31726				-242.48729	816.90863	-1373.85791							-286.51251	442.67731	-1271.94836	-479.14252	356.26151	-1519.12976	-267.77914	115.82172	-1200.60901				
38	0.370				-504.67291	1350.79919	-1346.26636				-382.70020	1109.53943	-1372.09863	-154.15834	1194.57495	-1427.73853																-7.00428	710.17822	-1386.38208				-243.21069	814.81403	-1372.30847							-287.35175	442.17035	-1267.37256	-479.63367	355.60397	-1517.64575	-267.79559	115.32233	-1196.36353				
39	0.380				-504.55017	1349.38843	-1339.09998				-383.72577	1108.88025	-1364.25977	-154.75098	1192.72937	-1420.89111																-7.72262	708.50000	-1380.54761				-244.00101	814.08966	-1368.52539							-289.63519	442.62158	-1258.92957	-479.67694	353.59961	-1515.65735	-268.30359	113.58502	-1193.07190				
